<svg xmlns="http://www.w3.org/2000/svg" viewBox="0 0 1040 600" role="img" aria-labelledby="title desc">
  <title id="title">Ethernet visual</title>
  <desc id="desc">No-text reusable Ethernet illustration.</desc>
  <defs>
    <linearGradient id="bg" x1="0" x2="1" y1="0" y2="1"><stop offset="0" stop-color="#1a1a1a"/><stop offset="1" stop-color="#0f0f0f"/></linearGradient>
    <radialGradient id="cyanGlow" cx="15%" cy="18%" r="60%"><stop offset="0" stop-color="#00ffcc" stop-opacity=".12"/><stop offset="1" stop-color="#00ffcc" stop-opacity="0"/></radialGradient>
    <radialGradient id="greenGlow" cx="86%" cy="82%" r="65%"><stop offset="0" stop-color="#00ff70" stop-opacity=".10"/><stop offset="1" stop-color="#00ff70" stop-opacity="0"/></radialGradient>
    <filter id="glow" x="-40%" y="-40%" width="180%" height="180%"><feGaussianBlur stdDeviation="5" result="blur"/><feMerge><feMergeNode in="blur"/><feMergeNode in="SourceGraphic"/></feMerge></filter>
  </defs>
  <rect width="1040" height="600" rx="18" fill="url(#bg)"/>
  <rect width="1040" height="600" rx="18" fill="url(#cyanGlow)"/>
  <rect width="1040" height="600" rx="18" fill="url(#greenGlow)"/>
  <g stroke="#22312d" stroke-width="1.4" opacity=".72">
    <path d="M70 470h900M70 390h900M70 310h900M70 230h900M70 150h900"/>
    <path d="M170 72v456M330 72v456M490 72v456M650 72v456M810 72v456"/>
    <path d="M-50 540L520 40M160 575L790 35M500 620L1070 120" opacity=".28"/>
  </g>
  <rect x="410" y="220" width="220" height="150" rx="18" fill="#101615" stroke="#40514b" stroke-width="2" opacity="1"/><rect x="130" y="110" width="120" height="80" rx="18" fill="#101615" stroke="#40514b" stroke-width="2" opacity="1"/><rect x="310" y="410" width="120" height="80" rx="18" fill="#101615" stroke="#40514b" stroke-width="2" opacity="1"/><rect x="490" y="110" width="120" height="80" rx="18" fill="#101615" stroke="#40514b" stroke-width="2" opacity="1"/><rect x="670" y="410" width="120" height="80" rx="18" fill="#101615" stroke="#40514b" stroke-width="2" opacity="1"/><rect x="850" y="110" width="120" height="80" rx="18" fill="#101615" stroke="#40514b" stroke-width="2" opacity="1"/><path d="M190 190 C420 260, 500 300, 520 295" fill="none" stroke="#00ff70" stroke-width="5" stroke-linecap="round" stroke-linejoin="round" opacity="0.55" stroke-dasharray="10 14" filter="url(#glow)"/><path d="M370 490 C420 260, 500 300, 520 295" fill="none" stroke="#00ffcc" stroke-width="5" stroke-linecap="round" stroke-linejoin="round" opacity="0.55" stroke-dasharray="10 14" filter="url(#glow)"/><path d="M550 190 C420 260, 500 300, 520 295" fill="none" stroke="#00ff70" stroke-width="5" stroke-linecap="round" stroke-linejoin="round" opacity="0.55" stroke-dasharray="10 14" filter="url(#glow)"/><path d="M730 490 C420 260, 500 300, 520 295" fill="none" stroke="#00ffcc" stroke-width="5" stroke-linecap="round" stroke-linejoin="round" opacity="0.55" stroke-dasharray="10 14" filter="url(#glow)"/><path d="M910 190 C420 260, 500 300, 520 295" fill="none" stroke="#00ff70" stroke-width="5" stroke-linecap="round" stroke-linejoin="round" opacity="0.55" stroke-dasharray="10 14" filter="url(#glow)"/><rect x="460" y="250" width="120" height="75" rx="8" fill="#172320" stroke="#335149" stroke-width="2" opacity="1"/>
</svg>