<svg xmlns="http://www.w3.org/2000/svg" viewBox="0 0 1040 600" role="img" aria-labelledby="title desc">
  <title id="title">Wi-Fi visual</title>
  <desc id="desc">No-text reusable Wi-Fi illustration.</desc>
  <defs>
    <linearGradient id="bg" x1="0" x2="1" y1="0" y2="1"><stop offset="0" stop-color="#1a1a1a"/><stop offset="1" stop-color="#0f0f0f"/></linearGradient>
    <radialGradient id="cyanGlow" cx="15%" cy="18%" r="60%"><stop offset="0" stop-color="#00ffcc" stop-opacity=".12"/><stop offset="1" stop-color="#00ffcc" stop-opacity="0"/></radialGradient>
    <radialGradient id="greenGlow" cx="86%" cy="82%" r="65%"><stop offset="0" stop-color="#00ff70" stop-opacity=".10"/><stop offset="1" stop-color="#00ff70" stop-opacity="0"/></radialGradient>
    <filter id="glow" x="-40%" y="-40%" width="180%" height="180%"><feGaussianBlur stdDeviation="5" result="blur"/><feMerge><feMergeNode in="blur"/><feMergeNode in="SourceGraphic"/></feMerge></filter>
  </defs>
  <rect width="1040" height="600" rx="18" fill="url(#bg)"/>
  <rect width="1040" height="600" rx="18" fill="url(#cyanGlow)"/>
  <rect width="1040" height="600" rx="18" fill="url(#greenGlow)"/>
  <g stroke="#22312d" stroke-width="1.4" opacity=".72">
    <path d="M70 470h900M70 390h900M70 310h900M70 230h900M70 150h900"/>
    <path d="M170 72v456M330 72v456M490 72v456M650 72v456M810 72v456"/>
    <path d="M-50 540L520 40M160 575L790 35M500 620L1070 120" opacity=".28"/>
  </g>
  <rect x="405" y="300" width="230" height="115" rx="24" fill="#101615" stroke="#40514b" stroke-width="2" opacity="1"/><circle cx="520" cy="340" r="14" fill="#00ff70" opacity="1" filter="url(#glow)"/><circle cx="520" cy="420" r="12" fill="#00ff70" opacity="1" filter="url(#glow)"/><path d="M455 355 A92 92 0 0 1 585 355" fill="none" stroke="#00ff70" stroke-width="5" opacity=".65" filter="url(#glow)"/><path d="M400 300 A170 170 0 0 1 640 300" fill="none" stroke="#00ff70" stroke-width="4" opacity=".35" filter="url(#glow)"/><path d="M340 240 A250 250 0 0 1 700 240" fill="none" stroke="#00ff70" stroke-width="3" opacity=".20" filter="url(#glow)"/><rect x="125" y="150" width="105" height="70" rx="16" fill="#101615" stroke="#40514b" stroke-width="2" opacity="1"/><rect x="285" y="185" width="105" height="70" rx="16" fill="#101615" stroke="#40514b" stroke-width="2" opacity="1"/><rect x="445" y="150" width="105" height="70" rx="16" fill="#101615" stroke="#40514b" stroke-width="2" opacity="1"/><rect x="605" y="185" width="105" height="70" rx="16" fill="#101615" stroke="#40514b" stroke-width="2" opacity="1"/><rect x="765" y="150" width="105" height="70" rx="16" fill="#101615" stroke="#40514b" stroke-width="2" opacity="1"/><path d="M177 220 C350 275, 430 330, 520 420" fill="none" stroke="#34b0ff" stroke-width="3" stroke-linecap="round" stroke-linejoin="round" opacity="0.45" stroke-dasharray="10 14" filter="url(#glow)"/><path d="M337 255 C350 275, 430 330, 520 420" fill="none" stroke="#00ffcc" stroke-width="3" stroke-linecap="round" stroke-linejoin="round" opacity="0.45" stroke-dasharray="10 14" filter="url(#glow)"/><path d="M497 220 C350 275, 430 330, 520 420" fill="none" stroke="#34b0ff" stroke-width="3" stroke-linecap="round" stroke-linejoin="round" opacity="0.45" stroke-dasharray="10 14" filter="url(#glow)"/><path d="M657 255 C350 275, 430 330, 520 420" fill="none" stroke="#00ffcc" stroke-width="3" stroke-linecap="round" stroke-linejoin="round" opacity="0.45" stroke-dasharray="10 14" filter="url(#glow)"/><path d="M817 220 C350 275, 430 330, 520 420" fill="none" stroke="#34b0ff" stroke-width="3" stroke-linecap="round" stroke-linejoin="round" opacity="0.45" stroke-dasharray="10 14" filter="url(#glow)"/>
</svg>